<svg xmlns="http://www.w3.org/2000/svg" viewBox="0 0 512 512">
  <rect width="512" height="512" fill="#070707"/>
  <path d="M130 74h252v364H130z" fill="#fafaf8"/>
  <path d="M130 74l13 12 13-12 13 12 13-12 13 12 13-12 13 12 13-12 13 12 13-12 13 12 13-12 13 12 13-12 13 12 13-12 13 12 13-12" fill="none" stroke="#fafaf8" stroke-width="16"/>
  <text x="256" y="178" text-anchor="middle" font-family="Courier New, monospace" font-size="42" font-weight="700" fill="#070707">YHL</text>
  <text x="256" y="228" text-anchor="middle" font-family="Courier New, monospace" font-size="20" letter-spacing="3" fill="#070707">RECEIPT CV</text>
  <path d="M172 270h168M172 300h168M172 330h168" stroke="#070707" stroke-width="8" stroke-linecap="square"/>
  <path d="M172 374h12m14 0h6m14 0h18m12 0h8m16 0h4m14 0h22m14 0h10m12 0h4" stroke="#070707" stroke-width="18"/>
</svg>
